%TF.GenerationSoftware,KiCad,Pcbnew,8.0.8*%
%TF.CreationDate,2025-05-09T18:55:12-05:00*%
%TF.ProjectId,PCB_screwSwitch,5043425f-7363-4726-9577-537769746368,rev?*%
%TF.SameCoordinates,Original*%
%TF.FileFunction,Legend,Top*%
%TF.FilePolarity,Positive*%
%FSLAX46Y46*%
G04 Gerber Fmt 4.6, Leading zero omitted, Abs format (unit mm)*
G04 Created by KiCad (PCBNEW 8.0.8) date 2025-05-09 18:55:12*
%MOMM*%
%LPD*%
G01*
G04 APERTURE LIST*
%ADD10C,0.300000*%
%ADD11C,0.150000*%
%ADD12C,0.100000*%
%ADD13C,0.127000*%
%ADD14C,0.120000*%
G04 APERTURE END LIST*
D10*
X175054510Y-76229400D02*
X176197368Y-76229400D01*
X174554510Y-87729400D02*
X175697368Y-87729400D01*
X175125939Y-88300828D02*
X175125939Y-87157971D01*
D11*
X165380953Y-75350057D02*
X165428572Y-75302438D01*
X165428572Y-75302438D02*
X165523810Y-75254819D01*
X165523810Y-75254819D02*
X165761905Y-75254819D01*
X165761905Y-75254819D02*
X165857143Y-75302438D01*
X165857143Y-75302438D02*
X165904762Y-75350057D01*
X165904762Y-75350057D02*
X165952381Y-75445295D01*
X165952381Y-75445295D02*
X165952381Y-75540533D01*
X165952381Y-75540533D02*
X165904762Y-75683390D01*
X165904762Y-75683390D02*
X165333334Y-76254819D01*
X165333334Y-76254819D02*
X165952381Y-76254819D01*
X166380953Y-76254819D02*
X166380953Y-75588152D01*
X166380953Y-75683390D02*
X166428572Y-75635771D01*
X166428572Y-75635771D02*
X166523810Y-75588152D01*
X166523810Y-75588152D02*
X166666667Y-75588152D01*
X166666667Y-75588152D02*
X166761905Y-75635771D01*
X166761905Y-75635771D02*
X166809524Y-75731009D01*
X166809524Y-75731009D02*
X166809524Y-76254819D01*
X166809524Y-75731009D02*
X166857143Y-75635771D01*
X166857143Y-75635771D02*
X166952381Y-75588152D01*
X166952381Y-75588152D02*
X167095238Y-75588152D01*
X167095238Y-75588152D02*
X167190477Y-75635771D01*
X167190477Y-75635771D02*
X167238096Y-75731009D01*
X167238096Y-75731009D02*
X167238096Y-76254819D01*
X167714286Y-76254819D02*
X167714286Y-75588152D01*
X167714286Y-75683390D02*
X167761905Y-75635771D01*
X167761905Y-75635771D02*
X167857143Y-75588152D01*
X167857143Y-75588152D02*
X168000000Y-75588152D01*
X168000000Y-75588152D02*
X168095238Y-75635771D01*
X168095238Y-75635771D02*
X168142857Y-75731009D01*
X168142857Y-75731009D02*
X168142857Y-76254819D01*
X168142857Y-75731009D02*
X168190476Y-75635771D01*
X168190476Y-75635771D02*
X168285714Y-75588152D01*
X168285714Y-75588152D02*
X168428571Y-75588152D01*
X168428571Y-75588152D02*
X168523810Y-75635771D01*
X168523810Y-75635771D02*
X168571429Y-75731009D01*
X168571429Y-75731009D02*
X168571429Y-76254819D01*
D12*
X161285714Y-79933609D02*
X161428571Y-79981228D01*
X161428571Y-79981228D02*
X161476190Y-80028847D01*
X161476190Y-80028847D02*
X161523809Y-80124085D01*
X161523809Y-80124085D02*
X161523809Y-80266942D01*
X161523809Y-80266942D02*
X161476190Y-80362180D01*
X161476190Y-80362180D02*
X161428571Y-80409800D01*
X161428571Y-80409800D02*
X161333333Y-80457419D01*
X161333333Y-80457419D02*
X160952381Y-80457419D01*
X160952381Y-80457419D02*
X160952381Y-79457419D01*
X160952381Y-79457419D02*
X161285714Y-79457419D01*
X161285714Y-79457419D02*
X161380952Y-79505038D01*
X161380952Y-79505038D02*
X161428571Y-79552657D01*
X161428571Y-79552657D02*
X161476190Y-79647895D01*
X161476190Y-79647895D02*
X161476190Y-79743133D01*
X161476190Y-79743133D02*
X161428571Y-79838371D01*
X161428571Y-79838371D02*
X161380952Y-79885990D01*
X161380952Y-79885990D02*
X161285714Y-79933609D01*
X161285714Y-79933609D02*
X160952381Y-79933609D01*
X162380952Y-80457419D02*
X162380952Y-79933609D01*
X162380952Y-79933609D02*
X162333333Y-79838371D01*
X162333333Y-79838371D02*
X162238095Y-79790752D01*
X162238095Y-79790752D02*
X162047619Y-79790752D01*
X162047619Y-79790752D02*
X161952381Y-79838371D01*
X162380952Y-80409800D02*
X162285714Y-80457419D01*
X162285714Y-80457419D02*
X162047619Y-80457419D01*
X162047619Y-80457419D02*
X161952381Y-80409800D01*
X161952381Y-80409800D02*
X161904762Y-80314561D01*
X161904762Y-80314561D02*
X161904762Y-80219323D01*
X161904762Y-80219323D02*
X161952381Y-80124085D01*
X161952381Y-80124085D02*
X162047619Y-80076466D01*
X162047619Y-80076466D02*
X162285714Y-80076466D01*
X162285714Y-80076466D02*
X162380952Y-80028847D01*
X163285714Y-80409800D02*
X163190476Y-80457419D01*
X163190476Y-80457419D02*
X163000000Y-80457419D01*
X163000000Y-80457419D02*
X162904762Y-80409800D01*
X162904762Y-80409800D02*
X162857143Y-80362180D01*
X162857143Y-80362180D02*
X162809524Y-80266942D01*
X162809524Y-80266942D02*
X162809524Y-79981228D01*
X162809524Y-79981228D02*
X162857143Y-79885990D01*
X162857143Y-79885990D02*
X162904762Y-79838371D01*
X162904762Y-79838371D02*
X163000000Y-79790752D01*
X163000000Y-79790752D02*
X163190476Y-79790752D01*
X163190476Y-79790752D02*
X163285714Y-79838371D01*
X163714286Y-80457419D02*
X163714286Y-79457419D01*
X163809524Y-80076466D02*
X164095238Y-80457419D01*
X164095238Y-79790752D02*
X163714286Y-80171704D01*
D11*
X156242319Y-85508333D02*
X156956604Y-85508333D01*
X156956604Y-85508333D02*
X157099461Y-85555952D01*
X157099461Y-85555952D02*
X157194700Y-85651190D01*
X157194700Y-85651190D02*
X157242319Y-85794047D01*
X157242319Y-85794047D02*
X157242319Y-85889285D01*
X157242319Y-84508333D02*
X157242319Y-85079761D01*
X157242319Y-84794047D02*
X156242319Y-84794047D01*
X156242319Y-84794047D02*
X156385176Y-84889285D01*
X156385176Y-84889285D02*
X156480414Y-84984523D01*
X156480414Y-84984523D02*
X156528033Y-85079761D01*
X168394819Y-82338333D02*
X169109104Y-82338333D01*
X169109104Y-82338333D02*
X169251961Y-82385952D01*
X169251961Y-82385952D02*
X169347200Y-82481190D01*
X169347200Y-82481190D02*
X169394819Y-82624047D01*
X169394819Y-82624047D02*
X169394819Y-82719285D01*
X168490057Y-81909761D02*
X168442438Y-81862142D01*
X168442438Y-81862142D02*
X168394819Y-81766904D01*
X168394819Y-81766904D02*
X168394819Y-81528809D01*
X168394819Y-81528809D02*
X168442438Y-81433571D01*
X168442438Y-81433571D02*
X168490057Y-81385952D01*
X168490057Y-81385952D02*
X168585295Y-81338333D01*
X168585295Y-81338333D02*
X168680533Y-81338333D01*
X168680533Y-81338333D02*
X168823390Y-81385952D01*
X168823390Y-81385952D02*
X169394819Y-81957380D01*
X169394819Y-81957380D02*
X169394819Y-81338333D01*
X155380953Y-75350057D02*
X155428572Y-75302438D01*
X155428572Y-75302438D02*
X155523810Y-75254819D01*
X155523810Y-75254819D02*
X155761905Y-75254819D01*
X155761905Y-75254819D02*
X155857143Y-75302438D01*
X155857143Y-75302438D02*
X155904762Y-75350057D01*
X155904762Y-75350057D02*
X155952381Y-75445295D01*
X155952381Y-75445295D02*
X155952381Y-75540533D01*
X155952381Y-75540533D02*
X155904762Y-75683390D01*
X155904762Y-75683390D02*
X155333334Y-76254819D01*
X155333334Y-76254819D02*
X155952381Y-76254819D01*
X156380953Y-76254819D02*
X156380953Y-75588152D01*
X156380953Y-75683390D02*
X156428572Y-75635771D01*
X156428572Y-75635771D02*
X156523810Y-75588152D01*
X156523810Y-75588152D02*
X156666667Y-75588152D01*
X156666667Y-75588152D02*
X156761905Y-75635771D01*
X156761905Y-75635771D02*
X156809524Y-75731009D01*
X156809524Y-75731009D02*
X156809524Y-76254819D01*
X156809524Y-75731009D02*
X156857143Y-75635771D01*
X156857143Y-75635771D02*
X156952381Y-75588152D01*
X156952381Y-75588152D02*
X157095238Y-75588152D01*
X157095238Y-75588152D02*
X157190477Y-75635771D01*
X157190477Y-75635771D02*
X157238096Y-75731009D01*
X157238096Y-75731009D02*
X157238096Y-76254819D01*
X157714286Y-76254819D02*
X157714286Y-75588152D01*
X157714286Y-75683390D02*
X157761905Y-75635771D01*
X157761905Y-75635771D02*
X157857143Y-75588152D01*
X157857143Y-75588152D02*
X158000000Y-75588152D01*
X158000000Y-75588152D02*
X158095238Y-75635771D01*
X158095238Y-75635771D02*
X158142857Y-75731009D01*
X158142857Y-75731009D02*
X158142857Y-76254819D01*
X158142857Y-75731009D02*
X158190476Y-75635771D01*
X158190476Y-75635771D02*
X158285714Y-75588152D01*
X158285714Y-75588152D02*
X158428571Y-75588152D01*
X158428571Y-75588152D02*
X158523810Y-75635771D01*
X158523810Y-75635771D02*
X158571429Y-75731009D01*
X158571429Y-75731009D02*
X158571429Y-76254819D01*
D13*
%TO.C,J1*%
X139550000Y-77050000D02*
X141250000Y-77050000D01*
X139550000Y-86950000D02*
X139550000Y-77050000D01*
X141250000Y-75350000D02*
X143750000Y-75350000D01*
X141250000Y-77050000D02*
X141250000Y-75350000D01*
X141250000Y-86950000D02*
X139550000Y-86950000D01*
X141250000Y-88650000D02*
X141250000Y-86950000D01*
X143750000Y-75350000D02*
X143750000Y-77050000D01*
X143750000Y-77050000D02*
X148550000Y-77050000D01*
X143750000Y-86950000D02*
X143750000Y-88650000D01*
X143750000Y-88650000D02*
X141250000Y-88650000D01*
X148550000Y-77050000D02*
X148550000Y-86950000D01*
X148550000Y-86950000D02*
X143750000Y-86950000D01*
X154750000Y-80000000D02*
X154750000Y-79000000D01*
X154750000Y-85000000D02*
X154750000Y-84000000D01*
X155250000Y-84500000D02*
X154250000Y-84500000D01*
D14*
%TO.C,J2*%
X169940000Y-76865000D02*
X181060000Y-76865000D01*
X169940000Y-87145000D02*
X169940000Y-76865000D01*
X169940000Y-87145000D02*
X181060000Y-87145000D01*
X171800000Y-87145000D02*
X171800000Y-76865000D01*
X173736000Y-78236000D02*
X174126000Y-78627000D01*
X173736000Y-83316000D02*
X173951000Y-83532000D01*
X173971000Y-78001000D02*
X174321000Y-78351000D01*
X176321000Y-80821000D02*
X176428000Y-80928000D01*
X176583000Y-80612000D02*
X176664000Y-80693000D01*
X178000000Y-87145000D02*
X178000000Y-76865000D01*
X180500000Y-87145000D02*
X180500000Y-76865000D01*
X180560000Y-87385000D02*
X181300000Y-87385000D01*
X181060000Y-87145000D02*
X181060000Y-76865000D01*
X181300000Y-87385000D02*
X181300000Y-86885000D01*
X173985391Y-86045317D02*
G75*
G02*
X173985000Y-83045000I1214607J1500317D01*
G01*
X174011825Y-83023355D02*
G75*
G02*
X176389000Y-83024000I1188175J-1521645D01*
G01*
X176388175Y-86066645D02*
G75*
G02*
X174011000Y-86066000I-1188175J1521645D01*
G01*
X177035539Y-83948597D02*
G75*
G02*
X177130000Y-84545000I-1835572J-596408D01*
G01*
X177130000Y-79465000D02*
G75*
G02*
X173270000Y-79465000I-1930000J0D01*
G01*
X173270000Y-79465000D02*
G75*
G02*
X177130000Y-79465000I1930000J0D01*
G01*
X177130336Y-84511731D02*
G75*
G02*
X177036000Y-85142000I-1930312J-33274D01*
G01*
%TD*%
M02*
