%TF.GenerationSoftware,KiCad,Pcbnew,8.0.8*%
%TF.CreationDate,2025-05-09T18:55:12-05:00*%
%TF.ProjectId,PCB_screwSwitch,5043425f-7363-4726-9577-537769746368,rev?*%
%TF.SameCoordinates,Original*%
%TF.FileFunction,Legend,Bot*%
%TF.FilePolarity,Positive*%
%FSLAX46Y46*%
G04 Gerber Fmt 4.6, Leading zero omitted, Abs format (unit mm)*
G04 Created by KiCad (PCBNEW 8.0.8) date 2025-05-09 18:55:12*
%MOMM*%
%LPD*%
G01*
G04 APERTURE LIST*
%ADD10C,0.300000*%
%ADD11C,0.100000*%
G04 APERTURE END LIST*
D10*
X145945489Y-82015114D02*
X145731203Y-82086542D01*
X145731203Y-82086542D02*
X145659774Y-82157971D01*
X145659774Y-82157971D02*
X145588346Y-82300828D01*
X145588346Y-82300828D02*
X145588346Y-82515114D01*
X145588346Y-82515114D02*
X145659774Y-82657971D01*
X145659774Y-82657971D02*
X145731203Y-82729400D01*
X145731203Y-82729400D02*
X145874060Y-82800828D01*
X145874060Y-82800828D02*
X146445489Y-82800828D01*
X146445489Y-82800828D02*
X146445489Y-81300828D01*
X146445489Y-81300828D02*
X145945489Y-81300828D01*
X145945489Y-81300828D02*
X145802632Y-81372257D01*
X145802632Y-81372257D02*
X145731203Y-81443685D01*
X145731203Y-81443685D02*
X145659774Y-81586542D01*
X145659774Y-81586542D02*
X145659774Y-81729400D01*
X145659774Y-81729400D02*
X145731203Y-81872257D01*
X145731203Y-81872257D02*
X145802632Y-81943685D01*
X145802632Y-81943685D02*
X145945489Y-82015114D01*
X145945489Y-82015114D02*
X146445489Y-82015114D01*
X144302632Y-82800828D02*
X144302632Y-82015114D01*
X144302632Y-82015114D02*
X144374060Y-81872257D01*
X144374060Y-81872257D02*
X144516917Y-81800828D01*
X144516917Y-81800828D02*
X144802632Y-81800828D01*
X144802632Y-81800828D02*
X144945489Y-81872257D01*
X144302632Y-82729400D02*
X144445489Y-82800828D01*
X144445489Y-82800828D02*
X144802632Y-82800828D01*
X144802632Y-82800828D02*
X144945489Y-82729400D01*
X144945489Y-82729400D02*
X145016917Y-82586542D01*
X145016917Y-82586542D02*
X145016917Y-82443685D01*
X145016917Y-82443685D02*
X144945489Y-82300828D01*
X144945489Y-82300828D02*
X144802632Y-82229400D01*
X144802632Y-82229400D02*
X144445489Y-82229400D01*
X144445489Y-82229400D02*
X144302632Y-82157971D01*
X143802631Y-81800828D02*
X143231203Y-81800828D01*
X143588346Y-81300828D02*
X143588346Y-82586542D01*
X143588346Y-82586542D02*
X143516917Y-82729400D01*
X143516917Y-82729400D02*
X143374060Y-82800828D01*
X143374060Y-82800828D02*
X143231203Y-82800828D01*
X142945488Y-81800828D02*
X142374060Y-81800828D01*
X142731203Y-81300828D02*
X142731203Y-82586542D01*
X142731203Y-82586542D02*
X142659774Y-82729400D01*
X142659774Y-82729400D02*
X142516917Y-82800828D01*
X142516917Y-82800828D02*
X142374060Y-82800828D01*
X172088346Y-88300828D02*
X172588346Y-87586542D01*
X172945489Y-88300828D02*
X172945489Y-86800828D01*
X172945489Y-86800828D02*
X172374060Y-86800828D01*
X172374060Y-86800828D02*
X172231203Y-86872257D01*
X172231203Y-86872257D02*
X172159774Y-86943685D01*
X172159774Y-86943685D02*
X172088346Y-87086542D01*
X172088346Y-87086542D02*
X172088346Y-87300828D01*
X172088346Y-87300828D02*
X172159774Y-87443685D01*
X172159774Y-87443685D02*
X172231203Y-87515114D01*
X172231203Y-87515114D02*
X172374060Y-87586542D01*
X172374060Y-87586542D02*
X172945489Y-87586542D01*
X170874060Y-88229400D02*
X171016917Y-88300828D01*
X171016917Y-88300828D02*
X171302632Y-88300828D01*
X171302632Y-88300828D02*
X171445489Y-88229400D01*
X171445489Y-88229400D02*
X171516917Y-88086542D01*
X171516917Y-88086542D02*
X171516917Y-87515114D01*
X171516917Y-87515114D02*
X171445489Y-87372257D01*
X171445489Y-87372257D02*
X171302632Y-87300828D01*
X171302632Y-87300828D02*
X171016917Y-87300828D01*
X171016917Y-87300828D02*
X170874060Y-87372257D01*
X170874060Y-87372257D02*
X170802632Y-87515114D01*
X170802632Y-87515114D02*
X170802632Y-87657971D01*
X170802632Y-87657971D02*
X171516917Y-87800828D01*
X170302632Y-87300828D02*
X169945489Y-88300828D01*
X169945489Y-88300828D02*
X169588346Y-87300828D01*
X167945489Y-87872257D02*
X167231204Y-87872257D01*
X168088346Y-88300828D02*
X167588346Y-86800828D01*
X167588346Y-86800828D02*
X167088346Y-88300828D01*
X171588346Y-75300828D02*
X170588346Y-76800828D01*
X170588346Y-75300828D02*
X171588346Y-76800828D01*
X170231203Y-75300828D02*
X169374061Y-75300828D01*
X169802632Y-76800828D02*
X169802632Y-75300828D01*
X168874061Y-76229400D02*
X167731204Y-76229400D01*
X167159775Y-75300828D02*
X166231203Y-75300828D01*
X166231203Y-75300828D02*
X166731203Y-75872257D01*
X166731203Y-75872257D02*
X166516918Y-75872257D01*
X166516918Y-75872257D02*
X166374061Y-75943685D01*
X166374061Y-75943685D02*
X166302632Y-76015114D01*
X166302632Y-76015114D02*
X166231203Y-76157971D01*
X166231203Y-76157971D02*
X166231203Y-76515114D01*
X166231203Y-76515114D02*
X166302632Y-76657971D01*
X166302632Y-76657971D02*
X166374061Y-76729400D01*
X166374061Y-76729400D02*
X166516918Y-76800828D01*
X166516918Y-76800828D02*
X166945489Y-76800828D01*
X166945489Y-76800828D02*
X167088346Y-76729400D01*
X167088346Y-76729400D02*
X167159775Y-76657971D01*
X165302632Y-75300828D02*
X165159775Y-75300828D01*
X165159775Y-75300828D02*
X165016918Y-75372257D01*
X165016918Y-75372257D02*
X164945490Y-75443685D01*
X164945490Y-75443685D02*
X164874061Y-75586542D01*
X164874061Y-75586542D02*
X164802632Y-75872257D01*
X164802632Y-75872257D02*
X164802632Y-76229400D01*
X164802632Y-76229400D02*
X164874061Y-76515114D01*
X164874061Y-76515114D02*
X164945490Y-76657971D01*
X164945490Y-76657971D02*
X165016918Y-76729400D01*
X165016918Y-76729400D02*
X165159775Y-76800828D01*
X165159775Y-76800828D02*
X165302632Y-76800828D01*
X165302632Y-76800828D02*
X165445490Y-76729400D01*
X165445490Y-76729400D02*
X165516918Y-76657971D01*
X165516918Y-76657971D02*
X165588347Y-76515114D01*
X165588347Y-76515114D02*
X165659775Y-76229400D01*
X165659775Y-76229400D02*
X165659775Y-75872257D01*
X165659775Y-75872257D02*
X165588347Y-75586542D01*
X165588347Y-75586542D02*
X165516918Y-75443685D01*
X165516918Y-75443685D02*
X165445490Y-75372257D01*
X165445490Y-75372257D02*
X165302632Y-75300828D01*
X163088347Y-76729400D02*
X162874062Y-76800828D01*
X162874062Y-76800828D02*
X162516919Y-76800828D01*
X162516919Y-76800828D02*
X162374062Y-76729400D01*
X162374062Y-76729400D02*
X162302633Y-76657971D01*
X162302633Y-76657971D02*
X162231204Y-76515114D01*
X162231204Y-76515114D02*
X162231204Y-76372257D01*
X162231204Y-76372257D02*
X162302633Y-76229400D01*
X162302633Y-76229400D02*
X162374062Y-76157971D01*
X162374062Y-76157971D02*
X162516919Y-76086542D01*
X162516919Y-76086542D02*
X162802633Y-76015114D01*
X162802633Y-76015114D02*
X162945490Y-75943685D01*
X162945490Y-75943685D02*
X163016919Y-75872257D01*
X163016919Y-75872257D02*
X163088347Y-75729400D01*
X163088347Y-75729400D02*
X163088347Y-75586542D01*
X163088347Y-75586542D02*
X163016919Y-75443685D01*
X163016919Y-75443685D02*
X162945490Y-75372257D01*
X162945490Y-75372257D02*
X162802633Y-75300828D01*
X162802633Y-75300828D02*
X162445490Y-75300828D01*
X162445490Y-75300828D02*
X162231204Y-75372257D01*
X160945491Y-76729400D02*
X161088348Y-76800828D01*
X161088348Y-76800828D02*
X161374062Y-76800828D01*
X161374062Y-76800828D02*
X161516919Y-76729400D01*
X161516919Y-76729400D02*
X161588348Y-76657971D01*
X161588348Y-76657971D02*
X161659776Y-76515114D01*
X161659776Y-76515114D02*
X161659776Y-76086542D01*
X161659776Y-76086542D02*
X161588348Y-75943685D01*
X161588348Y-75943685D02*
X161516919Y-75872257D01*
X161516919Y-75872257D02*
X161374062Y-75800828D01*
X161374062Y-75800828D02*
X161088348Y-75800828D01*
X161088348Y-75800828D02*
X160945491Y-75872257D01*
X160302634Y-76800828D02*
X160302634Y-75800828D01*
X160302634Y-76086542D02*
X160231205Y-75943685D01*
X160231205Y-75943685D02*
X160159777Y-75872257D01*
X160159777Y-75872257D02*
X160016919Y-75800828D01*
X160016919Y-75800828D02*
X159874062Y-75800828D01*
X158802634Y-76729400D02*
X158945491Y-76800828D01*
X158945491Y-76800828D02*
X159231206Y-76800828D01*
X159231206Y-76800828D02*
X159374063Y-76729400D01*
X159374063Y-76729400D02*
X159445491Y-76586542D01*
X159445491Y-76586542D02*
X159445491Y-76015114D01*
X159445491Y-76015114D02*
X159374063Y-75872257D01*
X159374063Y-75872257D02*
X159231206Y-75800828D01*
X159231206Y-75800828D02*
X158945491Y-75800828D01*
X158945491Y-75800828D02*
X158802634Y-75872257D01*
X158802634Y-75872257D02*
X158731206Y-76015114D01*
X158731206Y-76015114D02*
X158731206Y-76157971D01*
X158731206Y-76157971D02*
X159445491Y-76300828D01*
X158231206Y-75800828D02*
X157945492Y-76800828D01*
X157945492Y-76800828D02*
X157659777Y-76086542D01*
X157659777Y-76086542D02*
X157374063Y-76800828D01*
X157374063Y-76800828D02*
X157088349Y-75800828D01*
X156588348Y-76729400D02*
X156445491Y-76800828D01*
X156445491Y-76800828D02*
X156159777Y-76800828D01*
X156159777Y-76800828D02*
X156016920Y-76729400D01*
X156016920Y-76729400D02*
X155945491Y-76586542D01*
X155945491Y-76586542D02*
X155945491Y-76515114D01*
X155945491Y-76515114D02*
X156016920Y-76372257D01*
X156016920Y-76372257D02*
X156159777Y-76300828D01*
X156159777Y-76300828D02*
X156374063Y-76300828D01*
X156374063Y-76300828D02*
X156516920Y-76229400D01*
X156516920Y-76229400D02*
X156588348Y-76086542D01*
X156588348Y-76086542D02*
X156588348Y-76015114D01*
X156588348Y-76015114D02*
X156516920Y-75872257D01*
X156516920Y-75872257D02*
X156374063Y-75800828D01*
X156374063Y-75800828D02*
X156159777Y-75800828D01*
X156159777Y-75800828D02*
X156016920Y-75872257D01*
X155445491Y-75800828D02*
X155159777Y-76800828D01*
X155159777Y-76800828D02*
X154874062Y-76086542D01*
X154874062Y-76086542D02*
X154588348Y-76800828D01*
X154588348Y-76800828D02*
X154302634Y-75800828D01*
X153731205Y-76800828D02*
X153731205Y-75800828D01*
X153731205Y-75300828D02*
X153802633Y-75372257D01*
X153802633Y-75372257D02*
X153731205Y-75443685D01*
X153731205Y-75443685D02*
X153659776Y-75372257D01*
X153659776Y-75372257D02*
X153731205Y-75300828D01*
X153731205Y-75300828D02*
X153731205Y-75443685D01*
X153231204Y-75800828D02*
X152659776Y-75800828D01*
X153016919Y-75300828D02*
X153016919Y-76586542D01*
X153016919Y-76586542D02*
X152945490Y-76729400D01*
X152945490Y-76729400D02*
X152802633Y-76800828D01*
X152802633Y-76800828D02*
X152659776Y-76800828D01*
X151516919Y-76729400D02*
X151659776Y-76800828D01*
X151659776Y-76800828D02*
X151945490Y-76800828D01*
X151945490Y-76800828D02*
X152088347Y-76729400D01*
X152088347Y-76729400D02*
X152159776Y-76657971D01*
X152159776Y-76657971D02*
X152231204Y-76515114D01*
X152231204Y-76515114D02*
X152231204Y-76086542D01*
X152231204Y-76086542D02*
X152159776Y-75943685D01*
X152159776Y-75943685D02*
X152088347Y-75872257D01*
X152088347Y-75872257D02*
X151945490Y-75800828D01*
X151945490Y-75800828D02*
X151659776Y-75800828D01*
X151659776Y-75800828D02*
X151516919Y-75872257D01*
X150874062Y-76800828D02*
X150874062Y-75300828D01*
X150231205Y-76800828D02*
X150231205Y-76015114D01*
X150231205Y-76015114D02*
X150302633Y-75872257D01*
X150302633Y-75872257D02*
X150445490Y-75800828D01*
X150445490Y-75800828D02*
X150659776Y-75800828D01*
X150659776Y-75800828D02*
X150802633Y-75872257D01*
X150802633Y-75872257D02*
X150874062Y-75943685D01*
D11*
X163857143Y-79933609D02*
X164190476Y-79933609D01*
X164190476Y-80457419D02*
X164190476Y-79457419D01*
X164190476Y-79457419D02*
X163714286Y-79457419D01*
X163333333Y-80457419D02*
X163333333Y-79790752D01*
X163333333Y-79981228D02*
X163285714Y-79885990D01*
X163285714Y-79885990D02*
X163238095Y-79838371D01*
X163238095Y-79838371D02*
X163142857Y-79790752D01*
X163142857Y-79790752D02*
X163047619Y-79790752D01*
X162571428Y-80457419D02*
X162666666Y-80409800D01*
X162666666Y-80409800D02*
X162714285Y-80362180D01*
X162714285Y-80362180D02*
X162761904Y-80266942D01*
X162761904Y-80266942D02*
X162761904Y-79981228D01*
X162761904Y-79981228D02*
X162714285Y-79885990D01*
X162714285Y-79885990D02*
X162666666Y-79838371D01*
X162666666Y-79838371D02*
X162571428Y-79790752D01*
X162571428Y-79790752D02*
X162428571Y-79790752D01*
X162428571Y-79790752D02*
X162333333Y-79838371D01*
X162333333Y-79838371D02*
X162285714Y-79885990D01*
X162285714Y-79885990D02*
X162238095Y-79981228D01*
X162238095Y-79981228D02*
X162238095Y-80266942D01*
X162238095Y-80266942D02*
X162285714Y-80362180D01*
X162285714Y-80362180D02*
X162333333Y-80409800D01*
X162333333Y-80409800D02*
X162428571Y-80457419D01*
X162428571Y-80457419D02*
X162571428Y-80457419D01*
X161809523Y-79790752D02*
X161809523Y-80457419D01*
X161809523Y-79885990D02*
X161761904Y-79838371D01*
X161761904Y-79838371D02*
X161666666Y-79790752D01*
X161666666Y-79790752D02*
X161523809Y-79790752D01*
X161523809Y-79790752D02*
X161428571Y-79838371D01*
X161428571Y-79838371D02*
X161380952Y-79933609D01*
X161380952Y-79933609D02*
X161380952Y-80457419D01*
X161047618Y-79790752D02*
X160666666Y-79790752D01*
X160904761Y-79457419D02*
X160904761Y-80314561D01*
X160904761Y-80314561D02*
X160857142Y-80409800D01*
X160857142Y-80409800D02*
X160761904Y-80457419D01*
X160761904Y-80457419D02*
X160666666Y-80457419D01*
M02*
